<?xml version="1.0" standalone="no"?>
<!DOCTYPE svg PUBLIC "-//W3C//DTD SVG 20010904//EN"
 "http://www.w3.org/TR/2001/REC-SVG-20010904/DTD/svg10.dtd">
<svg version="1.0" xmlns="http://www.w3.org/2000/svg"
 width="640.000000pt" height="640.000000pt" viewBox="0 0 640.000000 640.000000"
 preserveAspectRatio="xMidYMid meet">
<metadata>
Created by potrace 1.11, written by Peter Selinger 2001-2013
</metadata>
<g transform="translate(0.000000,640.000000) scale(0.100000,-0.100000)"
fill="#000000" stroke="none">
<path d="M1525 6333 c-83 -11 -228 -81 -259 -124 -8 -12 -51 -61 -96 -110 -45
-49 -80 -94 -78 -100 2 -5 32 15 67 45 58 51 69 56 111 56 25 0 55 7 66 15 10
8 35 15 55 15 20 0 57 9 83 21 51 22 109 20 176 -8 35 -14 35 -14 12 -27 -29
-15 -62 -64 -62 -92 0 -17 -12 -23 -77 -38 -43 -10 -90 -25 -105 -32 -52 -27
-73 -105 -45 -162 13 -25 12 -29 -19 -55 -29 -24 -35 -26 -40 -13 -11 29 -79
20 -132 -16 -26 -18 -48 -31 -50 -30 -2 2 -21 -20 -43 -47 -28 -35 -48 -51
-64 -51 -18 0 -35 -17 -72 -71 -69 -101 -74 -112 -61 -124 7 -7 12 -6 16 4 2
8 28 38 57 68 53 53 80 64 103 41 13 -13 16 -60 5 -72 -8 -7 -33 -76 -33 -90
0 -6 13 2 28 17 19 18 39 27 60 27 18 0 32 4 32 9 0 16 157 111 217 130 49 16
58 14 185 -32 122 -45 120 -43 113 -76 -4 -21 5 -49 35 -111 31 -60 39 -85 31
-93 -9 -9 -16 -8 -30 0 -12 7 -22 8 -28 2 -11 -11 -43 -2 -43 12 0 5 -5 9 -12
9 -15 0 20 -39 57 -61 30 -19 30 -19 5 -19 -14 0 -48 16 -75 35 -28 19 -58 38
-67 41 -22 8 -24 54 -4 54 8 0 18 -4 21 -10 3 -5 11 -10 16 -10 6 0 -3 18 -21
40 -19 24 -30 48 -28 62 3 20 -2 24 -42 29 -25 4 -48 5 -52 2 -15 -8 -8 -32
12 -43 15 -8 18 -15 11 -28 -16 -33 -21 -134 -7 -167 22 -52 78 -88 149 -96
44 -5 88 -21 154 -55 78 -40 98 -46 132 -41 37 5 48 0 111 -44 49 -35 76 -61
90 -91 11 -23 19 -43 17 -44 -3 -4 -144 67 -187 94 -19 12 -41 22 -47 22 -7 0
-57 25 -112 55 -130 72 -130 72 -406 4 -95 -23 -110 -29 -134 -48 -14 -12 -37
-26 -50 -31 -13 -6 -46 -30 -75 -53 -28 -24 -84 -67 -124 -97 -40 -30 -69 -56
-64 -58 5 -1 52 18 105 43 52 25 122 50 154 55 85 14 194 12 223 -5 19 -11 21
-14 8 -15 -22 0 -33 -41 -19 -68 17 -31 14 -37 -29 -66 -42 -27 -51 -55 -26
-75 12 -10 17 -8 25 7 12 22 78 65 90 58 4 -3 26 2 50 10 23 8 47 12 52 9 5
-4 9 -1 9 5 0 7 12 9 34 5 23 -5 46 -1 71 10 42 20 69 9 45 -20 -8 -9 -8 -15
-2 -15 6 0 14 5 17 10 10 16 103 12 112 -4 4 -8 32 -32 62 -55 54 -40 55 -40
66 -18 26 54 86 17 146 -91 14 -26 32 -57 40 -70 31 -49 -33 -82 -77 -39 -21
21 -64 42 -64 32 0 -2 16 -13 35 -25 35 -22 44 -47 24 -67 -12 -12 -10 -43 12
-157 9 -53 10 -73 0 -87 -9 -15 -9 -25 0 -42 11 -19 10 -21 -3 -9 -11 9 -18
10 -23 2 -3 -5 -15 -10 -25 -10 -25 0 -33 -15 -20 -39 9 -18 8 -19 -19 -11
-64 18 -141 84 -170 145 -22 47 -36 61 -46 45 -10 -17 -41 -11 -61 11 -16 17
-19 37 -19 110 0 85 -1 89 -22 89 -76 0 5 -241 107 -319 25 -18 44 -39 42 -46
-3 -14 25 -28 38 -20 5 3 15 -3 22 -14 8 -11 42 -32 76 -47 34 -15 62 -32 62
-38 0 -7 21 -29 46 -50 25 -21 43 -40 41 -42 -9 -10 -227 73 -274 104 -30 19
-29 8 7 -84 24 -60 30 -89 28 -133 l-3 -56 -56 -5 c-57 -5 -84 -19 -94 -48 -3
-10 -17 -23 -32 -29 -24 -12 -29 -10 -59 21 -18 19 -37 36 -41 38 -5 1 -22 20
-37 41 -16 20 -34 37 -41 37 -7 0 -26 16 -41 36 -16 20 -42 50 -57 67 -27 30
-28 30 -23 8 10 -45 -12 -6 -35 64 -13 39 -26 106 -29 150 l-6 80 -12 -40
c-17 -57 -15 -229 3 -300 9 -32 12 -61 7 -64 -20 -13 -31 -50 -33 -113 -3 -63
-2 -67 39 -121 28 -38 64 -69 110 -97 38 -22 72 -40 76 -40 14 0 60 -40 78
-68 10 -15 45 -55 79 -88 47 -49 69 -63 100 -68 35 -6 45 -2 82 27 66 53 148
89 196 85 23 -2 40 -7 39 -12 -4 -11 211 -96 261 -103 22 -4 52 -20 76 -42 22
-20 55 -48 73 -61 46 -34 67 -108 58 -205 l-7 -72 35 -29 c47 -40 104 -74 122
-74 8 0 12 -5 8 -11 -3 -6 -15 -9 -25 -6 -30 8 -23 -9 23 -55 34 -34 39 -43
26 -52 -8 -6 -20 -44 -26 -84 -7 -41 -21 -90 -31 -110 -12 -24 -16 -44 -10
-57 5 -14 8 -15 9 -5 1 8 6 4 10 -10 12 -38 11 -108 -1 -112 -6 -2 -15 -22
-19 -43 -7 -35 -9 -37 -15 -17 -8 24 -50 31 -58 10 -8 -24 -22 3 -27 52 -1 13
-3 12 -12 -2 -11 -15 -14 -15 -35 0 -15 9 -54 17 -102 19 l-78 4 -40 -53 c-33
-44 -81 -117 -117 -176 -17 -28 51 17 69 45 24 38 66 82 90 95 10 6 -9 -20
-43 -58 -36 -40 -60 -75 -57 -83 3 -8 -1 -32 -9 -55 -18 -47 -52 -268 -62
-398 l-7 -88 39 -42 c21 -24 52 -48 70 -55 55 -20 118 -72 150 -126 17 -29 36
-51 42 -50 6 2 9 -3 6 -10 -3 -8 12 -25 36 -42 45 -31 45 -30 26 -66 -23 -45
-5 -56 48 -29 44 24 74 22 44 -3 -8 -6 -44 -50 -79 -97 -35 -47 -77 -99 -94
-115 -38 -39 -88 -105 -79 -105 4 0 19 10 33 23 22 19 21 17 -4 -15 -17 -20
-36 -35 -43 -32 -7 2 -10 -1 -7 -6 3 -5 -15 -31 -41 -57 -55 -57 -147 -169
-192 -236 -30 -43 -34 -67 -13 -67 5 0 51 57 104 128 52 70 142 181 200 247
59 66 104 126 102 132 -2 7 1 12 7 10 6 -1 13 4 16 12 3 9 0 11 -9 6 -8 -5 -5
1 5 13 11 12 24 22 29 22 6 0 22 10 36 22 20 18 19 15 -5 -12 -16 -19 -48 -57
-69 -85 -22 -27 -80 -97 -130 -155 -51 -58 -131 -158 -179 -222 -48 -65 -91
-120 -95 -123 -18 -11 2 -54 29 -64 32 -11 39 -5 85 68 45 72 173 229 270 331
50 52 117 126 149 163 32 37 61 65 64 62 4 -3 11 -20 17 -38 10 -31 45 -51 45
-26 0 6 -8 18 -17 25 -11 8 -13 13 -5 14 6 0 12 7 12 16 0 27 24 9 33 -26 6
-23 5 -35 -4 -40 -18 -12 -8 -149 14 -164 12 -10 13 -16 5 -24 -8 -8 -8 -15 2
-27 7 -9 17 -50 21 -93 5 -42 11 -91 13 -109 4 -26 2 -31 -9 -27 -37 15 -4
-39 40 -65 l35 -20 0 98 c0 63 -6 114 -15 142 -9 24 -14 51 -12 61 3 10 -3 18
-14 21 -11 3 -19 13 -19 23 0 14 3 15 12 6 7 -7 18 -12 25 -12 11 0 12 14 7
64 -4 36 -4 72 0 82 5 14 9 13 25 -7 10 -13 29 -44 42 -69 23 -43 24 -54 23
-213 0 -120 -4 -171 -13 -176 -6 -4 -14 -24 -18 -44 -4 -30 -1 -40 24 -67 29
-31 31 -32 130 -33 95 -2 103 0 127 22 34 32 42 80 27 165 -22 124 -24 143
-11 126 9 -12 10 -12 6 5 -3 11 -10 42 -17 68 -6 26 -14 45 -17 42 -15 -14
-83 149 -101 240 -4 22 -13 50 -19 62 -7 12 -12 34 -12 48 0 29 12 29 80 -5
44 -22 89 -23 142 -4 48 17 51 17 43 4 -3 -6 1 -10 9 -10 9 0 16 -9 16 -20 0
-13 7 -20 20 -20 21 0 28 -24 10 -35 -5 -3 -10 1 -10 10 0 9 -5 13 -11 9 -6
-3 -8 -17 -5 -29 3 -13 2 -27 -4 -30 -22 -14 -7 -45 49 -104 63 -64 100 -78
120 -44 8 16 13 16 43 5 59 -24 68 -25 88 -7 17 15 24 16 45 7 14 -6 25 -16
25 -21 0 -5 16 -19 35 -31 28 -18 44 -21 78 -16 23 4 72 6 110 6 61 -1 71 2
105 28 62 50 129 116 141 139 23 46 5 209 -29 255 -11 15 -25 40 -31 55 -10
27 -9 26 20 -7 17 -19 33 -43 36 -52 4 -10 11 -18 16 -18 18 0 8 30 -22 65
-29 33 -31 38 -19 60 7 13 16 22 21 20 4 -3 26 7 49 22 43 28 37 46 -7 22 -30
-16 -54 -4 -64 34 -7 27 -2 32 48 42 53 10 74 26 93 71 23 52 18 67 -29 105
-16 13 -28 26 -25 30 2 4 -4 13 -13 20 -14 12 -16 12 -9 -1 4 -9 1 -8 -7 3 -8
9 -19 17 -24 17 -6 0 -16 7 -23 15 -7 8 -17 12 -23 8 -5 -3 -7 -1 -3 5 3 6 2
13 -4 17 -6 4 -8 11 -4 16 3 6 11 5 21 -2 12 -10 16 -10 23 1 11 18 -18 56
-55 71 -16 7 -33 14 -38 17 -4 2 -5 -2 -2 -10 3 -7 19 -21 37 -31 17 -10 28
-20 25 -23 -10 -10 -68 37 -77 61 -5 13 -40 48 -78 79 -97 77 -112 98 -107
149 3 23 10 92 16 152 6 61 15 115 19 120 4 6 11 66 15 134 5 100 4 122 -7
115 -11 -6 -11 -5 0 8 9 11 10 18 2 23 -17 11 -11 23 13 27 15 2 23 11 25 27
2 14 21 45 43 71 21 25 39 53 39 61 0 8 31 48 68 90 114 129 246 282 292 339
25 30 67 79 93 109 45 50 48 57 42 92 -5 29 -3 39 7 40 36 3 75 -4 96 -17 56
-36 238 -75 252 -55 10 15 137 91 152 91 8 0 23 9 32 19 10 11 25 17 37 14 22
-6 25 -19 7 -26 -7 -3 -8 -6 -3 -6 6 -1 29 17 50 39 21 22 36 40 32 40 -5 0
-19 -12 -33 -27 -13 -14 -27 -24 -30 -21 -3 3 9 16 26 29 17 13 53 43 80 66
28 24 64 50 80 58 29 15 43 55 19 55 -6 0 1 14 16 32 30 36 31 27 -9 217 -14
68 -32 131 -39 140 -8 9 -19 30 -25 46 -16 47 -14 0 3 -64 14 -53 14 -55 -9
-78 -13 -13 -29 -37 -36 -53 -7 -16 -16 -27 -22 -24 -5 3 -15 0 -23 -6 -8 -7
-22 -9 -31 -6 -9 4 -28 -1 -41 -9 -23 -16 -26 -15 -54 14 -30 32 -53 39 -64
21 -3 -5 -21 -10 -40 -10 -21 0 -51 -12 -85 -35 -61 -41 -92 -44 -125 -10 -36
35 -34 85 5 124 17 16 39 33 51 36 23 8 20 31 -5 29 -31 -3 -178 -99 -187
-122 -12 -32 -40 -24 -51 13 -8 27 -4 34 39 72 27 24 57 46 68 49 27 9 75 55
75 72 0 13 -3 13 -18 -1 -9 -8 -36 -22 -60 -30 -49 -17 -53 -25 31 67 42 46
43 49 23 65 -11 10 -21 9 -45 -3 -53 -28 -101 -16 -101 25 0 9 -7 30 -15 45
-8 16 -15 36 -15 44 0 30 156 139 273 190 51 23 62 34 22 24 -31 -8 -31 -6 0
37 l26 34 -23 5 -22 6 23 21 c31 29 94 43 191 43 59 0 91 -5 118 -19 41 -20
57 -18 72 10 14 25 -3 57 -36 69 -47 18 -42 68 7 80 24 6 24 7 -8 23 -19 10
-55 17 -90 17 -57 0 -59 1 -71 32 l-11 31 110 -6 c60 -4 120 -12 132 -19 12
-6 29 -12 38 -12 9 -1 49 -31 89 -68 67 -62 100 -82 100 -59 0 5 -7 11 -14 14
-17 7 -46 96 -46 142 0 47 -57 120 -136 173 -16 10 -12 11 30 7 27 -4 63 -16
80 -27 22 -15 17 -8 -15 24 -55 54 -137 85 -246 95 -68 6 -74 4 -137 -31 -37
-20 -73 -36 -81 -36 -8 0 -31 -9 -52 -21 -21 -11 -29 -14 -18 -7 11 7 46 40
77 73 l58 60 -69 5 c-66 5 -101 20 -101 44 0 6 -9 17 -20 24 -22 14 -26 42 -8
60 7 7 31 12 54 12 41 0 42 0 46 39 2 29 0 37 -10 34 -22 -9 23 57 83 122 30
32 55 62 55 65 0 11 54 57 86 74 18 8 80 25 140 37 118 24 123 23 207 -34 58
-40 39 -2 -33 65 -108 100 -123 108 -202 108 -56 0 -71 -4 -88 -22 -11 -12
-20 -25 -20 -28 0 -4 -17 -15 -39 -24 -29 -14 -51 -16 -93 -11 -45 6 -68 2
-132 -20 -53 -18 -88 -25 -110 -21 -48 9 -84 52 -96 114 -11 58 -26 91 -48
108 -13 10 -12 16 12 47 19 25 23 36 14 40 -7 2 10 15 37 28 46 22 50 28 55
64 4 36 10 43 55 67 28 15 65 28 84 28 19 0 72 12 117 27 l82 26 68 -18 c38
-10 88 -17 110 -16 38 1 46 -3 80 -42 22 -25 53 -72 69 -105 16 -33 31 -59 33
-58 1 2 -7 28 -18 57 -12 30 -23 70 -25 89 -4 48 -79 219 -104 237 -23 15 -27
43 -10 60 18 18 -37 53 -85 53 -62 0 -211 -51 -266 -90 -14 -10 -81 -48 -148
-84 -99 -54 -126 -64 -142 -56 -10 5 -27 10 -37 10 -10 0 -29 6 -43 13 -14 8
-65 35 -114 60 -49 26 -95 56 -103 67 l-14 20 -40 -20 c-21 -11 -39 -27 -39
-35 0 -8 -6 -15 -14 -15 -19 0 -85 -78 -93 -110 -7 -29 -78 -126 -98 -133 -7
-3 -16 -20 -20 -38 -5 -21 -10 -27 -15 -19 -5 7 -6 20 -4 29 3 9 -3 5 -13 -9
-10 -14 -32 -41 -49 -60 -55 -60 -114 -144 -114 -160 0 -8 -7 -23 -14 -32 -37
-50 -35 11 4 90 17 34 30 66 30 70 0 11 -65 -89 -79 -123 -7 -16 -37 -50 -67
-75 -59 -50 -92 -104 -162 -270 -38 -90 -45 -115 -45 -175 0 -139 20 -380 36
-420 8 -22 18 -58 22 -80 9 -57 48 -119 125 -201 73 -77 143 -174 155 -214 4
-14 16 -41 27 -60 39 -66 50 -115 58 -244 7 -120 6 -135 -17 -220 -14 -50 -36
-110 -49 -133 -18 -30 -21 -42 -12 -45 7 -3 -14 -13 -47 -23 -81 -25 -106 -48
-103 -97 1 -21 11 -49 23 -64 l21 -26 42 21 c59 30 82 28 81 -6 -1 -17 -3 -21
-6 -10 -5 21 -17 21 -66 -1 l-37 -17 25 -37 c14 -21 30 -50 36 -65 8 -20 12
-24 19 -14 5 8 6 -6 3 -35 -18 -196 -16 -214 27 -214 13 0 13 1 0 10 -11 7 -7
10 18 10 32 0 32 0 30 -47 -1 -45 -2 -46 -5 -10 -4 36 -6 38 -33 32 -47 -10
-68 8 -72 63 l-3 47 -20 -35 c-17 -30 -20 -53 -20 -160 0 -102 3 -131 17 -152
18 -27 14 -59 -12 -107 -22 -43 -2 -32 24 13 26 45 42 115 28 126 -4 3 -15 25
-25 50 l-16 45 19 -24 c11 -13 20 -32 20 -42 0 -10 5 -19 10 -19 6 0 10 -12
10 -27 0 -35 7 -27 36 44 13 32 24 49 24 38 0 -17 2 -18 11 -5 8 12 9 9 4 -10
-9 -34 -93 -209 -116 -242 -11 -14 -19 -29 -19 -32 0 -14 30 -4 68 23 39 29
40 29 58 10 19 -21 6 -27 -15 -6 -10 10 -17 6 -37 -17 -23 -26 -24 -30 -9 -46
14 -16 14 -19 -9 -34 -32 -20 -37 -20 -29 2 6 16 5 16 -14 -1 -12 -10 -27 -33
-33 -50 -7 -18 -26 -63 -43 -100 -29 -63 -32 -66 -41 -45 -9 22 -10 22 -13 -7
-5 -47 -23 -105 -33 -105 -5 0 -5 14 1 32 13 46 12 65 -2 51 -12 -12 -62 -243
-55 -251 3 -2 8 13 12 34 9 53 12 56 33 36 17 -16 17 -18 1 -32 -24 -21 -53
-117 -51 -169 1 -31 -2 -42 -11 -39 -9 3 -11 29 -9 96 2 61 -1 92 -8 92 -7 0
-11 -23 -11 -59 0 -73 -19 -161 -37 -168 -7 -3 -13 -12 -13 -21 0 -8 -3 -13
-6 -9 -3 3 1 30 10 60 20 67 21 107 3 107 -7 0 -32 16 -54 35 -41 34 -63 44
-63 26 0 -11 -38 -2 -46 10 -3 5 1 6 9 3 8 -3 21 2 30 10 16 17 42 22 33 7 -3
-4 3 -16 13 -25 15 -13 20 -14 24 -4 3 9 11 5 25 -12 18 -21 21 -22 22 -7 0
10 -7 29 -16 42 -19 29 -47 34 -37 8 4 -11 -7 -6 -28 15 -32 29 -69 48 -41 20
18 -18 15 -25 -11 -30 -22 -4 -23 -3 -17 39 9 59 -16 54 -35 -7 -4 -14 -13
-29 -20 -35 -7 -5 -20 -32 -28 -58 -22 -66 -11 -92 103 -239 17 -23 18 -27 5
-22 -16 6 -16 4 0 -27 10 -19 31 -53 46 -76 16 -23 29 -45 29 -50 0 -4 -9 6
-20 22 -14 21 -27 30 -45 29 -18 -1 -20 0 -5 3 20 4 19 6 -10 61 -38 70 -65
101 -110 128 -65 38 -69 37 -58 -4 22 -81 62 -134 123 -166 19 -10 24 -16 13
-16 -25 0 -96 66 -118 110 -11 21 -24 59 -31 85 -9 34 -25 61 -55 91 -51 50
-88 136 -89 209 0 40 -7 60 -35 100 -30 44 -35 59 -40 131 -4 72 -3 84 13 94
17 10 17 12 0 34 -10 12 -20 23 -23 23 -6 2 -74 59 -117 100 -20 18 -33 41
-33 55 1 21 2 21 14 -7 12 -26 75 -85 91 -85 3 0 -2 11 -10 24 -11 16 -13 26
-6 31 13 8 14 47 2 60 -4 6 -13 25 -19 44 -10 29 -9 35 10 50 l21 18 -32 22
c-24 17 -31 30 -31 54 0 34 40 130 59 141 6 4 11 18 11 31 0 31 -64 166 -98
208 -17 20 -2 10 40 -26 67 -58 85 -66 105 -46 8 8 3 23 -18 57 -16 25 -29 49
-29 53 0 3 37 9 83 12 182 13 244 52 278 173 10 38 19 81 19 95 0 34 -38 69
-76 69 -32 0 -74 37 -74 66 0 8 -4 12 -10 9 -21 -13 -8 -37 45 -88 47 -44 56
-59 61 -97 5 -43 4 -47 -45 -102 -59 -66 -134 -112 -168 -103 -13 3 -23 12
-23 21 0 9 -9 27 -20 41 -11 14 -25 44 -31 67 -8 31 -29 58 -85 111 -70 67
-74 73 -89 138 -22 98 -7 278 39 457 50 199 163 444 229 496 21 17 27 36 41
124 9 58 23 134 31 170 17 77 18 95 17 223 -2 76 -5 97 -16 97 -45 0 -106 64
-106 112 0 27 -62 172 -83 197 -8 9 -23 32 -34 52 -26 49 -136 199 -146 199
-12 0 -317 266 -344 300 -18 22 -36 29 -97 40 -67 11 -78 11 -101 -4 -20 -13
-30 -14 -47 -5 -12 6 -41 9 -67 6 -42 -5 -49 -2 -96 38 -61 52 -130 91 -256
144 -92 39 -119 44 -194 34z m3638 -214 c-6 -6 -17 -8 -24 -3 -9 5 -8 9 7 14
23 9 31 3 17 -11z m-978 -279 c-3 -5 -11 -10 -16 -10 -6 0 -7 5 -4 10 3 6 11
10 16 10 6 0 7 -4 4 -10z m-265 -80 c-6 -11 -13 -20 -16 -20 -2 0 0 9 6 20 6
11 13 20 16 20 2 0 0 -9 -6 -20z m-2152 -14 c4 -4 -2 -12 -12 -18 -10 -6 -26
-18 -35 -27 -17 -17 -19 -16 -39 16 -12 18 -22 36 -22 39 0 9 98 -1 108 -10z
m1841 -396 c-26 -106 -58 -300 -60 -365 l-2 -50 -7 50 c-13 83 -10 156 8 225
20 72 75 230 79 226 2 -2 -6 -40 -18 -86z m-600 -215 c0 -5 -8 6 -19 25 -11
19 -19 40 -19 45 0 6 8 -6 19 -25 11 -19 19 -39 19 -45z m-232 -102 c77 -115
127 -238 127 -312 -1 -71 -15 -129 -43 -174 -39 -64 -48 -65 -66 -5 -9 29 -20
91 -26 138 -5 47 -16 119 -25 160 -19 95 -42 290 -33 284 4 -2 33 -43 66 -91z
m-90 55 c-3 -8 -6 -5 -6 6 -1 11 2 17 5 13 3 -3 4 -12 1 -19z m1202 -132 c-8
-64 -17 -106 -24 -106 -19 0 -35 23 -35 50 0 23 61 171 68 165 2 -2 -2 -50 -9
-109z m-38 61 c-10 -9 -11 -8 -5 6 3 10 9 15 12 12 3 -3 0 -11 -7 -18z m279
-38 c0 -18 -18 -9 -23 12 -4 16 -3 18 9 8 8 -6 14 -15 14 -20z m597 -29 c3
-83 7 -96 25 -96 9 1 17 -3 17 -9 0 -5 -7 -9 -14 -7 -8 1 -25 -4 -39 -13 -17
-11 -25 -13 -28 -4 -3 8 -14 8 -43 0 -22 -6 -57 -11 -77 -11 -31 0 -36 3 -31
18 5 14 3 15 -8 5 -26 -25 -28 -12 -4 23 14 20 25 47 25 60 0 25 14 32 25 14
4 -6 26 3 54 24 32 24 51 32 58 25 7 -7 14 -5 23 6 7 8 13 15 14 15 0 0 2 -22
3 -50z m-2548 -651 c9 -27 9 -30 -4 -19 -8 7 -15 21 -15 31 0 28 7 23 19 -12z
m-694 -689 c10 -11 13 -20 7 -20 -6 0 -16 9 -22 20 -6 11 -9 20 -7 20 2 0 12
-9 22 -20z m3755 -27 c0 -5 -5 -15 -10 -23 -7 -11 -12 -12 -21 -3 -6 6 -8 16
-5 22 8 12 36 15 36 4z m-605 -84 c12 -19 -5 -23 -22 -6 -16 16 -16 17 -1 17
9 0 20 -5 23 -11z m-214 -359 c44 0 46 7 -26 -79 -65 -78 -113 -139 -155 -196
-76 -104 -191 -245 -201 -245 -19 0 -8 21 16 30 14 5 25 16 25 24 0 8 28 49
63 93 74 92 141 183 134 183 -3 0 -38 -40 -78 -90 -40 -49 -75 -90 -77 -90 -3
0 -2 30 1 67 5 66 5 66 -13 43 -19 -25 -40 -20 -40 11 0 12 18 32 47 52 26 17
57 42 69 55 12 12 25 22 31 22 19 0 86 79 80 94 -5 11 3 18 26 25 18 5 38 7
45 5 8 -2 31 -4 53 -4z m74 0 c-3 -5 -10 -10 -16 -10 -5 0 -9 5 -9 10 0 6 7
10 16 10 8 0 12 -4 9 -10z m-26 -87 c-30 -31 -59 -62 -65 -67 -6 -6 -42 -49
-79 -96 -38 -47 -94 -114 -125 -150 -32 -36 -68 -83 -82 -105 -32 -51 -54 -70
-63 -55 -4 6 -2 16 3 23 87 111 173 215 187 227 10 8 35 37 56 65 52 70 208
229 216 221 4 -4 -18 -32 -48 -63z m-572 -215 c-3 -7 -5 -2 -5 12 0 14 2 19 5
13 2 -7 2 -19 0 -25z m61 -200 c-8 -7 -27 -24 -43 -38 -26 -21 -25 -20 4 13
19 20 39 37 44 37 4 0 2 -6 -5 -12z m72 -63 c-7 -9 -15 -13 -17 -11 -7 7 7 26
19 26 6 0 6 -6 -2 -15z m-1206 -171 c3 -8 2 -12 -4 -9 -6 3 -10 10 -10 16 0
14 7 11 14 -7z m-37 -11 c0 -9 -4 -10 -14 -2 -7 6 -13 12 -13 14 0 1 6 2 13 2
8 0 14 -6 14 -14z m-20 -40 c0 -8 -4 -10 -12 -3 -7 5 -16 6 -20 2 -5 -4 -5 -2
-2 4 9 15 34 13 34 -3z m39 -8 c-1 -8 -6 -18 -11 -22 -4 -4 -5 -2 -1 5 4 7 2
12 -6 12 -9 0 -9 3 2 10 19 12 19 13 16 -5z m44 11 c0 -2 -8 -10 -17 -17 -16
-13 -17 -12 -4 4 13 16 21 21 21 13z m-123 -66 c2 -11 -1 -20 -5 -20 -4 0 -8
11 -8 25 0 28 8 24 13 -5z m38 2 c-3 -3 -11 0 -18 7 -9 10 -8 11 6 5 10 -3 15
-9 12 -12z m50 9 c-9 -8 -36 -10 -30 -2 2 4 11 8 20 8 8 0 13 -3 10 -6z m30 0
c3 -5 2 -12 -3 -15 -5 -3 -9 1 -9 9 0 17 3 19 12 6z m-20 -31 c3 -6 -1 -7 -9
-4 -18 7 -21 14 -7 14 6 0 13 -4 16 -10z m-50 -30 c-3 -5 -12 -10 -18 -10 -7
0 -6 4 3 10 19 12 23 12 15 0z m1035 -4 c0 -2 -8 -10 -17 -17 -16 -13 -17 -12
-4 4 13 16 21 21 21 13z m-1019 -33 c13 -16 12 -17 -3 -4 -17 13 -22 21 -14
21 2 0 10 -8 17 -17z m1088 -7 c9 -11 9 -16 -1 -22 -7 -4 -10 -4 -6 1 4 4 3
14 -3 22 -6 7 -9 13 -6 13 2 0 10 -6 16 -14z m-1106 -9 c3 -7 -3 -13 -14 -13
-13 0 -15 3 -7 13 6 7 12 13 13 13 2 0 5 -6 8 -13z m-48 -15 c-3 -3 -11 0 -18
7 -9 10 -8 11 6 5 10 -3 15 -9 12 -12z m90 8 c-3 -5 -12 -10 -18 -10 -7 0 -6
4 3 10 19 12 23 12 15 0z m40 0 c3 -6 -1 -7 -9 -4 -18 7 -21 14 -7 14 6 0 13
-4 16 -10z m1090 0 c4 -6 1 -9 -7 -8 -7 2 -12 -3 -10 -10 1 -8 -2 -11 -8 -7
-8 5 -7 11 1 21 14 17 16 17 24 4z m-1138 -35 c0 -8 -10 -23 -21 -32 -21 -18
-21 -18 -2 5 11 12 16 22 12 22 -4 0 -4 5 -1 10 9 14 12 13 12 -5z m-34 -12
c-4 -10 -9 -11 -19 -2 -18 15 -18 15 5 15 11 0 17 -5 14 -13z m1114 2 c0 -8
-4 -12 -9 -9 -5 3 -6 10 -3 15 9 13 12 11 12 -6z m38 -3 c-3 -3 -11 0 -18 7
-9 10 -8 11 6 5 10 -3 15 -9 12 -12z m-1078 2 c-3 -3 -12 -4 -19 -1 -8 3 -5 6
6 6 11 1 17 -2 13 -5z m-113 -12 c3 -5 -1 -9 -9 -9 -8 0 -12 4 -9 9 3 4 7 8 9
8 2 0 6 -4 9 -8z m1090 -8 c3 -8 2 -12 -4 -9 -6 3 -10 10 -10 16 0 14 7 11 14
-7z m106 2 c0 -2 -9 -6 -20 -9 -11 -3 -18 -1 -14 4 5 9 34 13 34 5z m-1035
-35 c-8 -14 -25 -14 -25 0 0 5 5 7 10 4 6 -3 10 -1 10 6 0 7 3 10 6 6 3 -3 3
-10 -1 -16z m-120 -1 c3 -6 -1 -7 -9 -4 -18 7 -21 14 -7 14 6 0 13 -4 16 -10z
m988 -7 c-5 -12 -3 -14 7 -8 9 5 11 4 6 -4 -4 -6 -12 -9 -17 -6 -12 8 -12 35
1 35 5 0 6 -7 3 -17z m73 5 c3 -4 -1 -5 -10 -4 -8 1 -18 5 -22 8 -3 4 1 5 10
4 8 -1 18 -5 22 -8z m79 3 c-9 -8 -36 -10 -30 -2 2 4 11 8 20 8 8 0 13 -3 10
-6z m-1124 -38 c13 -16 12 -17 -3 -4 -17 13 -22 21 -14 21 2 0 10 -8 17 -17z
m1119 14 c0 -2 -10 -12 -22 -23 l-23 -19 19 23 c18 21 26 27 26 19z m-1143
-30 c0 -8 -6 -14 -14 -14 -9 0 -10 4 -2 14 6 7 12 13 14 13 1 0 2 -6 2 -13z
m232 -27 c5 -17 6 -28 2 -25 -5 3 -14 19 -20 35 -5 17 -6 28 -2 25 5 -3 14
-19 20 -35z m-185 16 c-3 -9 -12 -12 -22 -9 -15 6 -9 11 25 22 1 1 0 -5 -3
-13z m1041 5 c-9 -8 -36 -10 -30 -2 2 4 11 8 20 8 8 0 13 -3 10 -6z m-992 -16
c-3 -9 -8 -14 -10 -11 -3 3 -2 9 2 15 9 16 15 13 8 -4z m942 -15 l20 -25 -24
20 c-13 11 -25 19 -28 17 -3 -2 -8 0 -11 4 -4 4 -1 4 6 0 7 -4 12 -2 12 5 0 7
1 10 3 8 1 -2 11 -15 22 -29z m-1035 -15 c-6 -8 -8 -20 -4 -27 5 -10 4 -10 -6
-1 -11 10 -11 15 0 28 7 8 15 15 17 15 3 0 0 -7 -7 -15z m45 5 c3 -6 -1 -7 -9
-4 -18 7 -21 14 -7 14 6 0 13 -4 16 -10z m885 -4 c0 -2 -7 -7 -16 -10 -8 -3
-12 -2 -9 4 6 10 25 14 25 6z m-347 -45 c-4 -3 -11 -10 -15 -15 -4 -4 -6 1 -5
12 1 12 6 18 15 15 7 -3 10 -9 5 -12z m-525 -16 c-3 -3 -9 2 -12 12 -6 14 -5
15 5 6 7 -7 10 -15 7 -18z m-23 6 c3 -5 2 -12 -3 -15 -5 -3 -9 1 -9 9 0 17 3
19 12 6z m13 -35 c-10 -7 -14 -17 -10 -21 4 -5 1 -5 -7 0 -12 7 -11 10 4 22
24 17 36 17 13 -1z m251 -42 c3 -16 1 -17 -13 -5 -10 8 -22 24 -28 35 -11 20
-10 20 13 5 13 -9 26 -25 28 -35z m371 -42 c0 -5 -9 -17 -20 -27 -16 -14 -20
-15 -20 -4 0 16 19 39 32 39 4 0 8 -4 8 -8z m87 -24 c-3 -8 -6 -5 -6 6 -1 11
2 17 5 13 3 -3 4 -12 1 -19z m133 -8 c0 -5 -18 -10 -41 -10 -24 0 -38 4 -34
10 3 6 22 10 41 10 19 0 34 -4 34 -10z m-143 -32 c-3 -8 -6 -5 -6 6 -1 11 2
17 5 13 3 -3 4 -12 1 -19z m173 12 c0 -6 -8 -14 -17 -18 -10 -4 -42 -20 -72
-36 -42 -21 -51 -30 -40 -38 10 -6 3 -7 -21 -3 -40 8 -64 25 -35 25 16 0 128
47 165 70 20 12 20 12 20 0z m-861 -110 c0 -9 -6 -4 -14 10 -8 14 -14 32 -14
40 0 9 6 4 14 -10 8 -14 14 -32 14 -40z m608 44 c-3 -3 -12 -4 -19 -1 -8 3 -5
6 6 6 11 1 17 -2 13 -5z m-568 -164 c0 -8 -7 1 -14 20 -18 46 -17 64 0 25 8
-16 14 -37 14 -45z m281 -4 c0 -2 -7 -7 -16 -10 -8 -3 -12 -2 -9 4 6 10 25 14
25 6z m-51 -231 c-63 -64 -83 -78 -73 -51 5 14 121 116 131 116 3 0 -23 -29
-58 -65z m-66 10 c-10 -13 -22 -25 -27 -25 -5 0 1 11 14 25 30 32 36 32 13 0z
m498 -113 c-8 -15 -7 -23 3 -31 7 -6 16 -8 20 -4 4 4 4 -1 0 -11 -6 -16 -8
-17 -16 -2 -5 9 -15 16 -22 16 -15 0 -26 22 -25 48 0 11 4 8 10 -8 8 -20 12
-22 19 -10 5 8 10 24 11 35 1 16 2 17 6 3 2 -9 0 -26 -6 -36z m49 -62 c0 -5
-2 -10 -4 -10 -3 0 -8 5 -11 10 -3 6 -1 10 4 10 6 0 11 -4 11 -10z m325 -45
l30 -26 -40 22 c-22 11 -49 30 -60 41 l-20 20 30 -15 c17 -9 44 -28 60 -42z
m-165 31 c0 -24 -16 -36 -49 -35 -30 0 -33 2 -15 9 12 5 25 13 29 19 6 10 35
16 35 7z m315 -56 c3 -5 1 -10 -4 -10 -6 0 -11 5 -11 10 0 6 2 10 4 10 3 0 8
-4 11 -10z m-1338 -272 c-3 -7 -5 -2 -5 12 0 14 2 19 5 13 2 -7 2 -19 0 -25z
m133 -131 c0 -15 5 -37 11 -48 6 -11 9 -25 6 -32 -4 -13 -47 108 -47 132 1 30
30 -21 30 -52z m-18 -113 c-2 -19 -9 -31 -14 -28 -5 4 -8 15 -5 25 3 12 0 19
-9 19 -10 0 -14 14 -14 52 l0 51 23 -43 c15 -28 21 -55 19 -76z m-378 41 c-9
-14 -19 -23 -22 -20 -5 4 26 45 35 45 2 0 -4 -11 -13 -25z m-51 -59 c-10 -13
-20 -22 -22 -20 -4 4 29 44 36 44 2 0 -4 -11 -14 -24z m427 -79 c0 -18 -2 -19
-10 -7 -13 20 -13 43 0 35 6 -3 10 -16 10 -28z m41 -108 c13 -21 12 -152 -2
-144 -6 4 -8 13 -5 21 3 8 -3 31 -14 52 -25 45 -27 91 -4 88 8 -1 20 -9 25
-17z m-661 -89 c-12 -16 -24 -30 -26 -30 -3 0 4 14 16 30 12 17 24 30 26 30 3
0 -4 -13 -16 -30z m841 -83 c-6 -8 -8 -16 -5 -19 3 -3 1 -9 -4 -12 -6 -3 -9 0
-8 6 2 16 15 38 23 38 3 0 0 -6 -6 -13z m-57 -35 c3 -5 -1 -9 -9 -9 -8 0 -12
4 -9 9 3 4 7 8 9 8 2 0 6 -4 9 -8z m136 -12 c0 -5 -5 -10 -11 -10 -5 0 -7 5
-4 10 3 6 8 10 11 10 2 0 4 -4 4 -10z"/>
<path d="M4076 6004 c-10 -14 -16 -28 -13 -30 2 -3 12 7 21 22 10 14 16 28 13
30 -2 3 -12 -7 -21 -22z"/>
<path d="M4020 5940 c-6 -11 -8 -20 -6 -20 3 0 10 9 16 20 6 11 8 20 6 20 -3
0 -10 -9 -16 -20z"/>
<path d="M1900 4517 c0 -2 13 -20 28 -39 24 -30 30 -34 45 -23 15 11 15 14 -6
32 -20 19 -67 40 -67 30z"/>
<path d="M3404 4345 c-65 -96 -90 -142 -72 -127 26 21 119 163 115 175 -2 6
-21 -16 -43 -48z"/>
<path d="M4955 4306 c-19 -14 -17 -15 23 -16 23 0 42 5 42 10 0 6 -4 10 -9 10
-5 0 -15 2 -23 5 -7 3 -22 -1 -33 -9z"/>
<path d="M1762 4220 c0 -19 2 -27 5 -17 2 9 2 25 0 35 -3 9 -5 1 -5 -18z"/>
<path d="M3188 4010 c-14 -32 -14 -37 1 -63 9 -16 30 -37 47 -48 30 -18 32
-18 45 -2 13 16 12 17 -3 5 -14 -11 -17 -10 -23 7 -3 12 -10 21 -14 21 -11 0
-29 47 -33 85 l-4 30 -16 -35z"/>
<path d="M4810 3900 c-17 -16 -27 -30 -22 -30 4 0 21 14 37 30 16 17 26 30 22
30 -3 0 -20 -13 -37 -30z"/>
<path d="M3191 3814 c-31 -45 -24 -50 12 -8 15 18 24 35 19 37 -4 3 -18 -10
-31 -29z"/>
<path d="M3268 3779 c15 -29 27 -76 31 -121 l7 -73 16 31 c9 17 24 36 32 43
29 24 14 111 -19 111 -8 0 -18 6 -22 13 -4 6 -22 19 -38 28 l-30 15 23 -47z"/>
<path d="M3428 3790 c6 -58 18 -80 42 -80 24 0 25 8 3 32 -9 10 -24 35 -34 56
l-17 37 6 -45z"/>
<path d="M3115 3699 c-4 -6 -5 -12 -2 -15 2 -3 7 2 10 11 7 17 1 20 -8 4z"/>
<path d="M3353 3648 c-15 -19 -27 -44 -18 -36 4 4 16 3 26 -3 15 -7 21 -6 25
6 9 23 -3 30 -23 14 -16 -13 -17 -12 -4 4 8 9 12 20 9 22 -3 3 -10 0 -15 -7z"/>
<path d="M3327 3554 c-23 -13 -26 -18 -16 -30 13 -16 15 -14 40 29 12 20 12
20 -24 1z"/>
<path d="M3472 3550 c-6 -11 -12 -37 -11 -57 l1 -38 13 46 c7 26 15 52 19 58
4 6 3 11 -1 11 -5 0 -14 -9 -21 -20z"/>
<path d="M3417 3449 c-21 -29 -22 -49 -3 -49 23 0 37 25 28 50 l-9 23 -16 -24z"/>
<path d="M3250 3348 c-13 -24 -38 -61 -57 -84 -41 -51 -42 -59 -2 -39 22 12
39 35 61 83 17 37 32 70 35 75 2 4 0 7 -5 7 -4 0 -19 -19 -32 -42z"/>
<path d="M3684 3335 c-9 -36 8 -51 29 -27 16 18 16 20 -2 36 -19 18 -20 17
-27 -9z"/>
<path d="M3537 3270 c-15 -30 -28 -70 -28 -89 l-1 -36 -8 30 c-4 17 -9 26 -10
20 -9 -38 -7 -67 5 -79 8 -7 12 -15 11 -17 -2 -2 2 -10 9 -16 22 -20 50 25 64
104 11 57 11 73 -1 103 l-14 34 -27 -54z"/>
<path d="M3712 3288 c-18 -18 -17 -20 38 -103 46 -72 50 -75 56 -50 9 37 -2
84 -31 127 -26 40 -43 46 -63 26z"/>
<path d="M3055 3244 c-33 -7 -77 -13 -98 -13 -31 -1 -36 -4 -30 -16 13 -22 81
-55 86 -41 3 8 9 7 18 -2 12 -11 12 -13 0 -10 -19 4 -26 -21 -7 -28 23 -9 81
41 98 84 17 44 18 44 -67 26z m50 -18 c-16 -24 -45 -42 -45 -29 0 6 50 52 58
53 1 0 -5 -11 -13 -24z"/>
<path d="M3426 3192 c-4 -13 -5 -26 -2 -29 10 -11 18 4 14 29 l-4 23 -8 -23z"/>
<path d="M3587 3057 c-15 -48 -30 -94 -33 -102 -4 -8 -1 -15 5 -15 6 0 25 30
41 67 26 56 29 74 22 103 -8 35 -8 34 -35 -53z"/>
<path d="M3757 3079 c4 -13 8 -18 11 -10 2 7 -1 18 -6 23 -8 8 -9 4 -5 -13z"/>
<path d="M3711 3065 c0 -16 6 -39 14 -49 19 -25 19 -12 0 39 -14 38 -14 39
-14 10z"/>
<path d="M3533 3055 c-3 -9 -3 -18 -1 -21 3 -3 8 4 11 16 6 23 -1 27 -10 5z"/>
<path d="M2980 2961 c0 -10 -6 -24 -14 -30 -11 -9 -12 -19 -3 -46 16 -54 27
-42 27 30 0 36 -2 65 -5 65 -3 0 -5 -8 -5 -19z"/>
<path d="M3457 2891 c-8 -68 -4 -84 11 -54 5 10 6 41 3 68 l-7 50 -7 -64z"/>
<path d="M2906 2858 c-4 -17 1 -29 20 -46 44 -39 64 5 21 46 -29 27 -33 27
-41 0z"/>
<path d="M3877 2771 c-4 -17 -3 -21 5 -13 5 5 8 16 6 23 -3 8 -7 3 -11 -10z"/>
<path d="M2876 2717 c-17 -12 -17 -16 -3 -43 8 -16 24 -37 35 -47 11 -10 32
-38 48 -63 40 -63 48 -36 19 65 -12 45 -25 84 -26 86 -13 12 -57 14 -73 2z"/>
<path d="M3641 2502 c-1 -29 4 -44 14 -48 28 -11 31 1 8 46 l-22 45 0 -43z"/>
<path d="M2981 2384 c0 -11 3 -14 6 -6 3 7 2 16 -1 19 -3 4 -6 -2 -5 -13z"/>
<path d="M2961 2331 c-1 -36 2 -52 9 -45 6 6 6 26 1 54 l-9 45 -1 -54z"/>
<path d="M3677 2326 c-13 -19 -15 -31 -8 -44 9 -14 10 -13 11 10 0 14 5 28 12
30 6 2 9 10 7 17 -3 9 -11 5 -22 -13z"/>
<path d="M3007 2300 c3 -11 9 -20 15 -20 5 0 4 9 -2 20 -6 11 -12 20 -14 20
-2 0 -2 -9 1 -20z"/>
<path d="M2961 2255 c0 -5 6 -21 14 -35 8 -14 14 -20 14 -15 0 6 -6 21 -14 35
-8 14 -14 21 -14 15z"/>
<path d="M3311 2177 c-1 -34 29 -95 60 -122 18 -16 17 -12 -8 25 -16 25 -35
63 -41 85 -8 34 -10 36 -11 12z"/>
<path d="M3040 2125 c0 -2 10 -10 23 -16 20 -11 21 -11 8 4 -13 16 -31 23 -31
12z"/>
<path d="M3030 2072 c0 -21 7 -47 15 -58 8 -12 11 -24 8 -28 -3 -3 -3 -6 0 -6
5 0 47 77 47 86 0 1 -16 11 -35 23 l-35 20 0 -37z"/>
<path d="M3281 2083 c-10 -26 -10 -27 4 -9 8 11 15 23 15 28 0 15 -7 8 -19
-19z"/>
<path d="M3130 2026 c0 -8 4 -17 9 -20 5 -4 7 3 4 14 -6 23 -13 26 -13 6z"/>
<path d="M3110 1985 c-7 -57 -7 -66 1 -71 16 -9 22 26 11 59 -7 24 -11 27 -12
12z"/>
<path d="M3551 1944 c0 -11 3 -14 6 -6 3 7 2 16 -1 19 -3 4 -6 -2 -5 -13z"/>
<path d="M2771 423 c0 -10 4 -27 9 -38 7 -16 9 -13 9 18 1 20 -3 37 -9 37 -5
0 -10 -8 -9 -17z"/>
<path d="M3247 283 c-4 -6 0 -19 8 -29 11 -15 14 -16 15 -4 0 21 -16 44 -23
33z"/>
</g>
</svg>
